<svg width="1002" height="144" viewBox="0 0 1002 144" fill="none" xmlns="http://www.w3.org/2000/svg">
<path d="M21.4569 64.0496V50.5326H73.0532V64.0496H21.4569ZM61.2768 15L95.3084 75.7049H73.2528L44.7101 22.1227H50.6981L22.0557 75.7049H0L34.0316 15H61.2768ZM99.5999 75.7049L103.193 52.5561L99.5999 29.4882H146.007C151.529 29.4882 155.92 30.5404 159.18 32.6449C162.44 34.6954 164.07 37.5013 164.07 41.0627C164.07 44.4082 162.407 47.1331 159.08 49.2375C155.82 51.288 151.296 52.5561 145.508 53.0417L146.805 50.3707C153.525 50.5869 158.648 51.747 162.174 53.8512C165.767 55.9556 167.563 58.8694 167.563 62.5927C167.563 66.5857 165.734 69.7693 162.074 72.1436C158.415 74.5178 153.492 75.7049 147.304 75.7049H99.5999ZM119.26 72.2245L111.376 65.4255H140.518C142.713 65.4255 144.343 65.0479 145.408 64.2926C146.539 63.4832 147.104 62.377 147.104 60.9741C147.104 59.6791 146.506 58.6268 145.308 57.8174C144.177 56.9541 142.347 56.5224 139.819 56.5224H115.368V47.9427H137.424C139.486 47.9427 141.05 47.565 142.114 46.8097C143.179 46.0544 143.711 45.0562 143.711 43.8149C143.711 42.5739 143.212 41.5756 142.214 40.8202C141.283 40.0648 139.819 39.6872 137.823 39.6872H111.476L119.26 32.9692L122.554 52.5567L119.26 72.2245ZM191.815 35.154H212.274V75.7049H191.815V35.154ZM170.158 29.4882H233.93V41.953H170.158V29.4882ZM272.952 77C265.633 77 259.246 76.0017 253.79 74.0052C248.334 71.9547 244.076 69.0948 241.016 65.4255C237.955 61.7023 236.425 57.4394 236.425 52.637C236.425 47.7266 237.955 43.4368 241.016 39.7676C244.076 36.0983 248.334 33.2385 253.79 31.188C259.246 29.1375 265.633 28.1122 272.952 28.1122C280.204 28.1122 286.558 29.1375 292.013 31.188C297.536 33.2385 301.827 36.0983 304.887 39.7676C307.948 43.4368 309.478 47.7266 309.478 52.637C309.478 57.4394 307.948 61.7023 304.887 65.4255C301.827 69.0948 297.536 71.9547 292.013 74.0052C286.558 76.0017 280.204 77 272.952 77ZM272.952 64.7781C276.278 64.7781 279.106 64.2924 281.435 63.3211C283.83 62.3499 285.659 60.9469 286.924 59.1122C288.188 57.2776 288.82 55.1192 288.82 52.637C288.82 50.047 288.188 47.8616 286.924 46.0809C285.659 44.2463 283.83 42.8433 281.435 41.872C279.106 40.9007 276.278 40.4151 272.952 40.4151C269.625 40.4151 266.764 40.9007 264.369 41.872C261.974 42.8433 260.144 44.2463 258.88 46.0809C257.616 47.8616 256.984 50.02 256.984 52.5561C256.984 55.0923 257.616 57.2776 258.88 59.1122C260.144 60.9469 261.974 62.3499 264.369 63.3211C266.764 64.2924 269.625 64.7781 272.952 64.7781ZM326.444 29.4882H388.32V75.7049H367.861V34.1827L377.242 41.7911H336.624L345.206 35.3968C345.606 38.5805 345.905 41.4674 346.105 44.0574C346.304 46.6475 346.404 48.9677 346.404 51.0182C346.404 60.0835 344.674 66.6397 341.214 70.6867C337.821 74.6797 332.299 76.6762 324.648 76.6762C322.386 76.6762 320.257 76.4873 318.261 76.1097C316.265 75.732 314.302 75.1115 312.372 74.2481V62.5118C313.57 62.8895 314.734 63.1863 315.865 63.4025C317.063 63.5649 318.127 63.646 319.059 63.646C322.319 63.646 324.614 62.4859 325.945 60.1656C327.276 57.8454 327.941 54.0412 327.941 48.7531C327.941 46.217 327.808 43.3571 327.542 40.1735C327.342 36.9359 326.976 33.3734 326.444 29.4882ZM463.868 77C456.682 77 450.362 76.0017 444.906 74.0052C439.517 71.9547 435.325 69.0948 432.331 65.4255C429.337 61.7023 427.84 57.4394 427.84 52.637C427.84 47.7266 429.337 43.4368 432.331 39.7676C435.325 36.0983 439.517 33.2385 444.906 31.188C450.362 29.1375 456.682 28.1122 463.868 28.1122C471.053 28.1122 477.341 29.1375 482.73 31.188C488.186 33.2385 492.411 36.0983 495.405 39.7676C498.465 43.4368 499.995 47.7266 499.995 52.637C499.995 57.4394 498.465 61.7023 495.405 65.4255C492.411 69.0948 488.186 71.9547 482.73 74.0052C477.341 76.0017 471.053 77 463.868 77ZM399.497 75.7049V29.4882H419.956V75.7049H399.497ZM411.074 58.141V45.919H441.114V58.141H411.074ZM463.868 64.7781C467.128 64.7781 469.889 64.2924 472.151 63.3211C474.48 62.3499 476.243 60.9469 477.441 59.1122C478.705 57.2776 479.337 55.0923 479.337 52.5561C479.337 50.02 478.705 47.8616 477.441 46.0809C476.243 44.2463 474.48 42.8433 472.151 41.872C469.889 40.9007 467.128 40.4151 463.868 40.4151C460.608 40.4151 457.813 40.9007 455.485 41.872C453.156 42.8433 451.36 44.2463 450.096 46.0809C448.898 47.8616 448.299 50.02 448.299 52.5561C448.299 55.0923 448.898 57.2776 450.096 59.1122C451.36 60.9469 453.156 62.3499 455.485 63.3211C457.813 64.2924 460.608 64.7781 463.868 64.7781ZM508.578 75.7049V29.4882H529.037V62.8354L523.049 61.1358L554.785 29.4882H576.342L526.742 75.7049H508.578ZM554.985 75.7049L538.717 53.1227L554.087 44.3812L577.939 75.7049H554.985ZM647 56.1983C646.468 60.3533 644.605 63.9957 641.411 67.1253C638.218 70.255 634.059 72.6831 628.936 74.4099C623.88 76.1366 618.191 77 611.871 77C604.885 77 598.73 75.9748 593.408 73.9243C588.085 71.8738 583.927 69.0139 580.933 65.3446C577.939 61.6753 576.442 57.4394 576.442 52.637C576.442 47.7806 577.939 43.5179 580.933 39.8486C583.927 36.1793 588.085 33.3194 593.408 31.2689C598.73 29.1645 604.885 28.1122 611.871 28.1122C618.191 28.1122 623.88 29.0026 628.936 30.7833C634.059 32.51 638.218 34.9382 641.411 38.0678C644.605 41.1436 646.468 44.7859 647 48.9948H626.741C626.009 46.2428 624.312 44.1384 621.651 42.6815C618.99 41.1705 615.729 40.4151 611.871 40.4151C608.877 40.4151 606.249 40.9007 603.986 41.872C601.791 42.7894 600.061 44.1653 598.797 45.9999C597.599 47.7806 597 49.993 597 52.637C597 55.2271 597.599 57.4395 598.797 59.2741C600.061 61.0547 601.791 62.4307 603.986 63.402C606.249 64.3194 608.877 64.7781 611.871 64.7781C615.729 64.7781 618.99 63.9957 621.651 62.4308C624.379 60.866 626.075 58.7885 626.741 56.1983H647Z" fill="#00A0C9"/>
<path d="M35.5371 96.7918V103.409H4.87366L8.93503 100.015V139.208H0V96.7918H35.5371ZM66.0651 139.208L64.5759 127.332L66.3359 123.203L64.5759 119.131L66.0651 107.198H75.1355L73.1049 123.203L75.1355 139.208H66.0651ZM68.7727 123.203C67.9153 126.559 66.4938 129.5 64.5082 132.026C62.5227 134.552 60.0633 136.512 57.1301 137.907C54.242 139.302 51.0154 140 47.4504 140C43.7049 140 40.3881 139.302 37.5 137.907C34.612 136.475 32.3556 134.495 30.7311 131.969C29.1065 129.443 28.2943 126.521 28.2943 123.203C28.2943 119.847 29.1065 116.925 30.7311 114.437C32.3556 111.911 34.612 109.95 37.5 108.555C40.3881 107.123 43.7049 106.406 47.4504 106.406C51.0154 106.406 54.242 107.104 57.1301 108.499C60.0633 109.894 62.5227 111.854 64.5082 114.38C66.5389 116.869 67.9604 119.81 68.7727 123.203ZM37.2293 123.203C37.2293 125.352 37.7482 127.256 38.7862 128.915C39.8692 130.536 41.3358 131.818 43.186 132.761C45.0362 133.666 47.1571 134.118 49.5488 134.118C51.9857 134.118 54.242 133.666 56.3178 132.761C58.3936 131.818 60.2212 130.536 61.8007 128.915C63.4252 127.256 64.7113 125.352 65.659 123.203C64.7113 121.054 63.4252 119.169 61.8007 117.548C60.2212 115.889 58.3936 114.607 56.3178 113.702C54.242 112.759 51.9857 112.288 49.5488 112.288C47.1571 112.288 45.0362 112.759 43.186 113.702C41.3358 114.607 39.8692 115.889 38.7862 117.548C37.7482 119.169 37.2293 121.054 37.2293 123.203ZM101.467 140C97.4055 140 93.8405 139.548 90.7719 138.643C87.7484 137.738 85.3567 136.437 83.5968 134.74C81.882 133.044 80.9343 131.027 80.7538 128.689H89.2827C89.6437 130.536 90.8622 131.95 92.938 132.931C95.0589 133.873 97.9019 134.344 101.467 134.344C104.896 134.344 107.582 133.967 109.522 133.213C111.462 132.422 112.433 131.215 112.433 129.594C112.433 128.274 111.62 127.294 109.996 126.653C108.416 126.012 105.889 125.692 102.415 125.692H94.8333V120.602H102.211C105.325 120.602 107.627 120.206 109.116 119.414C110.65 118.622 111.417 117.642 111.417 116.473C111.417 115.04 110.515 113.947 108.71 113.193C106.905 112.439 104.535 112.062 101.602 112.062C98.3531 112.062 95.7132 112.495 93.6826 113.362C91.6519 114.23 90.456 115.53 90.095 117.265H81.5661C81.7917 115.229 82.7168 113.4 84.3414 111.779C86.0111 110.12 88.3351 108.819 91.3134 107.877C94.2918 106.896 97.8342 106.406 101.941 106.406C105.686 106.406 108.935 106.802 111.688 107.594C114.441 108.386 116.562 109.479 118.051 110.874C119.585 112.231 120.352 113.796 120.352 115.568C120.352 117.001 119.811 118.32 118.728 119.527C117.69 120.734 116.043 121.695 113.786 122.411C111.575 123.128 108.71 123.486 105.19 123.486V122.524C110.334 122.374 114.328 122.958 117.171 124.278C120.014 125.56 121.435 127.482 121.435 130.046C121.435 131.969 120.646 133.685 119.066 135.193C117.532 136.701 115.276 137.889 112.297 138.756C109.319 139.585 105.709 140 101.467 140ZM193.999 140C188.268 140 183.236 139.076 178.904 137.229C174.617 135.381 171.278 132.817 168.886 129.537C166.494 126.219 165.298 122.374 165.298 118C165.298 113.626 166.494 109.799 168.886 106.519C171.278 103.201 174.617 100.619 178.904 98.7712C183.236 96.9237 188.268 96 193.999 96C199.73 96 204.739 96.9237 209.026 98.7712C213.358 100.619 216.72 103.201 219.112 106.519C221.548 109.799 222.767 113.626 222.767 118C222.767 122.374 221.548 126.219 219.112 129.537C216.72 132.817 213.358 135.381 209.026 137.229C204.739 139.076 199.73 140 193.999 140ZM147.699 139.208V96.7918H156.634V139.208H147.699ZM152.505 121.111V114.55H169.901V121.111H152.505ZM193.999 133.27C198.06 133.27 201.557 132.648 204.491 131.404C207.424 130.159 209.68 128.387 211.26 126.087C212.884 123.787 213.696 121.092 213.696 118C213.696 114.871 212.884 112.175 211.26 109.913C209.68 107.613 207.424 105.841 204.491 104.596C201.557 103.314 198.06 102.674 193.999 102.674C189.982 102.674 186.485 103.314 183.507 104.596C180.574 105.841 178.295 107.613 176.67 109.913C175.091 112.175 174.301 114.871 174.301 118C174.301 121.092 175.091 123.787 176.67 126.087C178.295 128.387 180.574 130.159 183.507 131.404C186.485 132.648 189.982 133.27 193.999 133.27ZM229.265 139.208L231.228 123.203L229.265 107.198H257.018C260.718 107.198 263.606 107.914 265.682 109.347C267.803 110.78 268.864 112.759 268.864 115.285C268.864 117.623 267.803 119.508 265.682 120.941C263.606 122.336 260.696 123.165 256.95 123.429L257.627 122.072C262.049 122.147 265.434 122.901 267.781 124.334C270.127 125.767 271.3 127.784 271.3 130.386C271.3 133.138 270.105 135.306 267.713 136.889C265.366 138.435 262.095 139.208 257.898 139.208H229.265ZM237.794 137.398L234.41 134.118H255.664C258.056 134.118 259.771 133.741 260.809 132.987C261.892 132.195 262.433 131.102 262.433 129.707C262.433 128.463 261.824 127.426 260.605 126.596C259.432 125.767 257.447 125.352 254.649 125.352H236.305V120.602H253.363C255.664 120.602 257.334 120.224 258.372 119.47C259.455 118.679 259.996 117.661 259.996 116.416C259.996 115.21 259.522 114.23 258.575 113.476C257.672 112.684 256.138 112.288 253.972 112.288H234.477L237.794 109.064L239.689 123.203L237.794 137.398ZM278.408 139.208V107.198H287.072V135.532L284.432 135.023L310.628 107.198H322V139.208H313.336V110.478L316.043 111.044L289.509 139.208H278.408Z" fill="black"/>
<path d="M795.378 126.263C795.378 126.311 795.384 127.139 795.387 128.886C795.389 130.633 795.394 139.747 795.394 140.96C795.394 142.172 795.388 142.646 795.479 142.801C795.57 142.956 795.756 142.956 802.679 142.956C809.601 142.956 823.261 142.956 830.334 142.956C837.407 142.956 837.892 142.956 838.141 142.694C838.39 142.432 838.402 141.908 838.393 139.271C838.384 136.634 838.354 131.883 838.342 129.361C838.331 126.84 838.337 126.549 838.505 126.401C838.673 126.253 839.002 126.248 856.789 126.247C874.576 126.247 909.82 126.25 928.003 126.243C946.185 126.236 947.305 126.22 947.877 126.65C948.449 127.08 948.474 127.956 948.474 130.374C948.474 132.792 948.449 136.751 948.447 139.106C948.445 141.461 948.466 142.211 948.855 142.586C949.243 142.962 949.999 142.962 956.93 142.969C963.86 142.976 976.965 142.991 983.732 142.998C990.5 143.005 990.93 143.005 991.157 142.725C991.384 142.444 991.408 141.883 991.423 139.254C991.438 136.625 991.443 131.928 991.453 129.421C991.463 126.914 991.476 126.597 991.629 126.429C991.782 126.261 992.075 126.243 992.586 126.233C993.097 126.223 993.826 126.222 994.302 126.221C994.778 126.22 995.001 126.219 995.11 126.087C995.219 125.955 995.215 125.692 995.058 116.191C994.901 106.69 994.592 87.9514 993.39 75.7788C992.188 63.6062 990.093 57.9997 987.687 54.4567C985.282 50.9136 982.566 49.4342 981.169 48.2661C979.773 47.0981 979.695 46.2416 980.122 44.762C980.549 43.2825 981.48 41.1801 985.03 38.883C988.58 36.5858 994.748 34.0941 997.91 32.7119C1001.07 31.3298 1001.23 31.0572 1000.86 30.1812C1000.49 29.3052 999.598 27.8257 998.939 27.008C998.279 26.1904 997.852 26.0347 994.419 26.1515C990.985 26.2682 984.545 26.6576 981.266 27.0081C977.988 27.3585 977.872 27.6699 977.697 27.9814C977.522 28.2929 977.29 28.6044 977.503 30.4538C977.716 32.3032 978.376 35.6904 978.706 37.5203C979.036 39.3502 979.036 39.6227 978.26 40.2846C977.484 40.9465 975.932 41.9977 975.039 42.4649C974.147 42.9322 973.914 42.8153 971.257 36.9751C968.599 31.1348 963.517 19.5716 960.859 13.7509C958.201 7.93027 957.969 7.85241 955.214 6.99585C952.459 6.13927 947.183 4.50407 940.413 3.41391C933.643 2.32374 925.379 1.77868 917.93 1.44774C910.481 1.11679 903.847 1 896.747 1C889.647 1.00001 882.081 1.11673 875.544 1.36987C869.007 1.62294 863.497 2.01228 856.058 3.00649C848.619 4.0007 839.25 5.5997 834.449 6.53552C829.648 7.47134 829.415 7.74387 826.825 13.6802C824.235 19.6165 819.288 31.2157 816.582 37.0155C813.876 42.8153 813.41 42.8153 812.576 42.3287C811.742 41.842 810.539 40.8686 809.88 40.2846C809.22 39.7006 809.104 39.5059 809.337 38.0653C809.569 36.6248 810.151 33.9383 810.5 32.2836C810.85 30.629 810.966 30.006 810.927 29.422C810.888 28.8379 810.694 28.2929 810.326 27.9035C809.957 27.5142 809.414 27.2806 805.98 26.9886C802.547 26.6966 796.223 26.3462 792.886 26.3072C789.55 26.2683 789.201 26.5408 788.716 27.2222C788.231 27.9035 787.61 28.9937 787.28 29.675C786.951 30.3564 786.912 30.6289 787.164 31.0378C787.416 31.4466 787.959 31.9916 790.927 33.3154C793.895 34.6392 799.288 36.7416 802.237 38.0264C805.185 39.3113 805.69 39.7785 806.194 40.8881C806.698 41.9977 807.203 43.7498 807.455 44.8594C807.707 45.969 807.707 46.4362 806.795 47.0008C805.884 47.5653 804.06 48.2272 802.857 48.7333C801.655 49.2395 801.073 49.5899 800.355 50.3102C799.637 51.0305 798.784 52.1206 798.124 53.2692C797.465 54.4178 796.999 55.6247 796.533 56.9679C796.068 58.3112 795.602 59.7907 795.04 62.0489C794.477 64.3071 793.818 67.3439 793.275 71.763C792.731 76.1821 792.262 82.5635 792.029 90.7783C791.796 98.9931 791.696 112.694 791.652 119.099C791.608 125.503 791.61 125.858 791.612 126.213C791.804 126.219 791.995 126.224 792.442 126.225C792.888 126.226 793.59 126.222 794.121 126.22C794.653 126.217 795.29 126.215 795.334 126.215C795.378 126.215 795.378 126.215 795.378 126.263Z" fill="black" stroke="black" stroke-width="0.897086" stroke-linecap="round" stroke-linejoin="bevel"/>
<path d="M885.286 119.131C884.569 118.854 883.387 118.406 882.001 117.772C880.615 117.139 879.026 116.32 877.252 115.297C875.478 114.274 873.521 113.046 871.534 111.555C869.547 110.064 867.531 108.31 865.796 106.546C864.061 104.782 862.608 103.008 861.503 101.342C860.398 99.6753 859.642 98.1161 859.022 96.6738C858.401 95.2314 857.917 93.9061 857.597 92.5905C857.277 91.2749 857.122 89.969 857.045 88.4585C856.967 86.948 856.967 85.2328 857.238 83.3325C857.51 81.4321 858.053 79.3467 858.959 77.0771C859.866 74.8075 861.137 72.354 862.568 69.7765C863.998 67.1991 865.588 64.4979 867.094 62.0215C868.601 59.545 870.024 57.2935 871.346 55.1152C872.668 52.9369 873.889 50.8319 875.595 47.8498C877.301 44.8678 879.491 41.0087 881.255 37.7245C883.019 34.4403 884.356 31.7312 885.354 29.4215C886.353 27.1119 887.012 25.2019 887.477 23.5744C887.942 21.9469 888.214 20.6021 888.359 19.0915C888.504 17.581 888.524 15.9048 888.272 14.3066C888.02 12.7084 887.496 11.1881 887.031 10.1551C886.566 9.12211 886.159 8.5764 886.041 8.26751C885.924 7.95862 886.095 7.88664 886.455 8.21484C886.814 8.5432 887.36 9.2719 888.069 10.2362C888.778 11.2004 889.649 12.4002 890.901 14.2353C892.153 16.0704 893.786 18.5408 895.213 20.8797C896.641 23.2186 897.862 25.4259 898.734 27.0752C899.606 28.7247 900.13 29.8161 900.58 30.8442C901.031 31.8724 901.409 32.8371 901.726 33.7313C902.044 34.6254 902.301 35.4489 902.521 36.2943C902.742 37.1397 902.926 38.007 902.981 39.3257C903.036 40.6444 902.966 42.3383 902.829 43.5689C902.693 44.7995 902.494 45.4768 902.191 46.3539C901.889 47.231 901.482 48.3078 901.121 49.1654C900.76 50.023 900.445 50.6613 899.941 51.592C899.437 52.5226 898.744 53.7457 896.452 57.1973C894.16 60.6489 890.27 66.3289 887.811 70.0096C885.352 73.6903 884.324 75.3717 883.317 77.1496C882.309 78.9275 881.323 80.8018 880.514 82.5452C879.705 84.2886 879.075 85.9011 878.616 87.2724C878.156 88.6437 877.869 89.7738 877.629 90.9246C877.389 92.0754 877.197 93.2468 877.087 94.2943C876.978 95.3417 876.95 96.2651 877.046 97.4435C877.142 98.6218 877.361 100.055 877.711 101.509C878.06 102.963 878.54 104.438 879.109 105.85C879.678 107.263 880.336 108.614 881.131 109.944C881.925 111.274 882.858 112.583 883.851 113.844C884.845 115.105 885.9 116.318 886.688 117.22C887.477 118.123 887.997 118.716 888.282 119.112C888.566 119.508 888.614 119.708 888.535 119.839C888.457 119.97 888.251 120.032 887.891 119.984C887.531 119.935 887.017 119.777 886.635 119.645C886.253 119.513 886.002 119.408 885.286 119.131Z" fill="#00A0C9"/>
<path d="M899.427 116.651C898.373 115.716 897.133 114.488 895.841 113.203C894.549 111.917 893.264 110.632 892.169 109.351C891.074 108.07 890.167 106.792 889.491 105.601C888.814 104.41 888.368 103.306 888.007 102.287C887.647 101.268 887.374 100.335 887.21 99.4147C887.047 98.4944 886.994 97.5867 887.001 96.5405C887.007 95.4942 887.074 94.3094 887.33 93.0065C887.586 91.7036 888.032 90.2826 888.729 88.7477C889.425 87.2127 890.374 85.5638 891.434 83.835C892.494 82.1063 893.666 80.2979 894.774 78.6416C895.881 76.9854 896.923 75.4815 897.895 74.0246C898.867 72.5677 899.769 71.1578 901.03 69.1595C902.29 67.1612 903.91 64.5746 905.222 62.3697C906.533 60.1648 907.536 58.3418 908.296 56.7824C909.056 55.2231 909.573 53.9275 909.948 52.8201C910.324 51.7127 910.558 50.7935 910.714 49.7553C910.871 48.7171 910.949 47.56 910.842 46.4468C910.735 45.3337 910.443 44.2646 910.171 43.5342C909.899 42.8038 909.647 42.4121 909.581 42.1945C909.514 41.9769 909.632 41.9333 909.857 42.1073C910.083 42.2813 912.599 45.2431 914.835 48.0531C917.07 50.8633 917.869 51.9391 919.497 54.2324C921.125 56.5258 922.301 58.2655 923.536 60.428C924.77 62.5904 925.895 64.9268 926.615 66.8421C927.334 68.7573 927.649 70.2512 927.83 71.9607C928.012 73.6701 928.061 75.5948 927.912 77.7766C927.763 79.9584 927.416 82.397 926.647 84.7026C925.878 87.0082 924.689 89.1806 922.788 91.6867C920.887 94.1929 918.306 96.9977 916.273 99.2308C914.24 101.464 912.823 103.05 911.245 104.667C909.667 106.284 907.958 107.901 906.758 109.301C905.559 110.701 904.877 111.877 904.349 113.199C903.821 114.52 903.447 115.986 903.359 117.143C903.271 118.301 903.468 119.151 903.666 120C903.033 119.501 902.399 119.002 901.738 118.507C901.076 118.011 900.481 117.586 899.427 116.651Z" fill="#00A0C9"/>
</svg>
