<svg width="744" height="487" viewBox="0 0 744 487" fill="none" xmlns="http://www.w3.org/2000/svg">
<path d="M25.2305 380.919V361.77H84.5131V380.919H25.2305ZM70.9825 311.431L110.084 397.431H84.7425L51.9478 321.522H58.8278L25.9185 397.431H0.577148L39.6785 311.431H70.9825ZM115.015 397.431L119.143 364.637L115.015 331.957H168.335C174.679 331.957 179.725 333.447 183.471 336.429C187.216 339.334 189.089 343.309 189.089 348.354C189.089 353.094 187.178 356.954 183.356 359.935C179.61 362.84 174.412 364.637 167.761 365.325L169.252 361.541C176.973 361.847 182.859 363.49 186.911 366.471C191.039 369.453 193.103 373.581 193.103 378.855C193.103 384.512 191 389.022 186.796 392.386C182.591 395.75 176.935 397.431 169.825 397.431H115.015ZM137.604 392.501L128.545 382.869H162.028C164.551 382.869 166.423 382.334 167.647 381.264C168.946 380.117 169.596 378.55 169.596 376.562C169.596 374.728 168.908 373.237 167.532 372.09C166.232 370.867 164.13 370.256 161.225 370.256H133.132V358.101H158.473C160.843 358.101 162.639 357.566 163.863 356.496C165.086 355.426 165.697 354.012 165.697 352.253C165.697 350.495 165.124 349.081 163.977 348.011C162.907 346.94 161.225 346.405 158.932 346.405H128.66L137.604 336.888L141.388 364.638L137.604 392.501ZM220.967 339.983H244.473V397.431H220.967V339.983ZM196.084 331.957H269.356V349.615H196.084V331.957ZM314.191 399.266C305.782 399.266 298.443 397.852 292.175 395.023C285.906 392.118 281.014 388.067 277.497 382.869C273.981 377.594 272.223 371.555 272.223 364.751C272.223 357.795 273.981 351.718 277.497 346.519C281.014 341.321 285.906 337.27 292.175 334.365C298.443 331.46 305.782 330.007 314.191 330.007C322.523 330.007 329.824 331.46 336.092 334.365C342.437 337.27 347.368 341.321 350.884 346.519C354.4 351.718 356.159 357.795 356.159 364.751C356.159 371.555 354.4 377.594 350.884 382.869C347.368 388.067 342.437 392.118 336.092 395.023C329.824 397.852 322.523 399.266 314.191 399.266ZM314.191 381.951C318.013 381.951 321.262 381.263 323.937 379.887C326.689 378.511 328.792 376.524 330.244 373.925C331.696 371.326 332.423 368.268 332.423 364.751C332.423 361.082 331.696 357.986 330.244 355.463C328.792 352.864 326.689 350.877 323.937 349.501C321.262 348.125 318.013 347.437 314.191 347.437C310.368 347.437 307.081 348.125 304.329 349.501C301.577 350.877 299.475 352.864 298.023 355.463C296.57 357.986 295.844 361.044 295.844 364.637C295.844 368.23 296.57 371.326 298.023 373.925C299.475 376.524 301.577 378.511 304.329 379.887C307.081 381.263 310.368 381.951 314.191 381.951ZM375.652 331.957H446.745V397.431H423.239V338.607L434.017 349.386H387.348L397.209 340.327C397.668 344.838 398.012 348.927 398.241 352.597C398.471 356.266 398.585 359.553 398.585 362.458C398.585 375.301 396.598 384.589 392.623 390.322C388.724 395.979 382.379 398.807 373.588 398.807C370.989 398.807 368.543 398.54 366.249 398.005C363.956 397.47 361.701 396.591 359.484 395.368V378.741C360.86 379.276 362.198 379.696 363.497 380.003C364.873 380.233 366.096 380.348 367.167 380.348C370.912 380.348 373.55 378.704 375.079 375.417C376.607 372.13 377.372 366.741 377.372 359.249C377.372 355.656 377.219 351.605 376.913 347.094C376.684 342.508 376.264 337.461 375.652 331.957ZM533.548 399.266C525.292 399.266 518.03 397.852 511.761 395.023C505.569 392.118 500.753 388.067 497.313 382.869C493.873 377.594 492.153 371.555 492.153 364.751C492.153 357.795 493.873 351.718 497.313 346.519C500.753 341.321 505.569 337.27 511.761 334.365C518.03 331.46 525.292 330.007 533.548 330.007C541.804 330.007 549.028 331.46 555.22 334.365C561.488 337.27 566.343 341.321 569.783 346.519C573.299 351.718 575.057 357.795 575.057 364.751C575.057 371.555 573.299 377.594 569.783 382.869C566.343 388.067 561.488 392.118 555.22 395.023C549.028 397.852 541.804 399.266 533.548 399.266ZM459.588 397.431V331.957H483.095V397.431H459.588ZM472.889 372.549V355.234H507.404V372.549H472.889ZM533.548 381.951C537.294 381.951 540.466 381.263 543.065 379.887C545.741 378.511 547.767 376.524 549.143 373.925C550.595 371.326 551.321 368.23 551.321 364.637C551.321 361.044 550.595 357.986 549.143 355.463C547.767 352.864 545.741 350.877 543.065 349.501C540.466 348.125 537.294 347.437 533.548 347.437C529.802 347.437 526.591 348.125 523.916 349.501C521.24 350.877 519.176 352.864 517.724 355.463C516.348 357.986 515.66 361.044 515.66 364.637C515.66 368.23 516.348 371.326 517.724 373.925C519.176 376.524 521.24 378.511 523.916 379.887C526.591 381.263 529.802 381.951 533.548 381.951ZM584.919 397.431V331.957H608.425V379.199L601.545 376.791L638.009 331.957H662.777L605.788 397.431H584.919ZM638.239 397.431L619.548 365.439L637.207 353.055L664.612 397.431H638.239ZM743.961 369.797C743.35 375.683 741.209 380.843 737.54 385.277C733.871 389.71 729.093 393.15 723.207 395.597C717.397 398.043 710.861 399.266 703.599 399.266C695.572 399.266 688.501 397.814 682.385 394.909C676.27 392.004 671.492 387.952 668.052 382.754C664.612 377.556 662.892 371.555 662.892 364.751C662.892 357.871 664.612 351.832 668.052 346.634C671.492 341.436 676.27 337.384 682.385 334.479C688.501 331.498 695.572 330.007 703.599 330.007C710.861 330.007 717.397 331.269 723.207 333.791C729.093 336.238 733.871 339.678 737.54 344.111C741.209 348.469 743.35 353.629 743.961 359.591H720.684C719.843 355.693 717.894 352.711 714.836 350.647C711.778 348.507 708.033 347.437 703.599 347.437C700.159 347.437 697.139 348.125 694.54 349.501C692.017 350.8 690.03 352.75 688.577 355.349C687.201 357.871 686.513 361.006 686.513 364.751C686.513 368.421 687.201 371.555 688.577 374.154C690.03 376.677 692.017 378.626 694.54 380.002C697.139 381.302 700.159 381.951 703.599 381.951C708.033 381.951 711.778 380.843 714.836 378.626C717.97 376.409 719.92 373.466 720.684 369.797H743.961Z" fill="#00A0C9"/>
<path d="M226.82 426V435.223H191.11L195.84 430.493V485.121H185.435V426H226.82ZM262.372 485.121L260.637 468.567L262.687 462.813L260.637 457.137L262.372 440.504H272.935L270.57 462.813L272.935 485.121H262.372ZM265.525 462.813C264.526 467.49 262.871 471.589 260.558 475.11C258.246 478.631 255.382 481.364 251.966 483.308C248.603 485.253 244.845 486.225 240.694 486.225C236.332 486.225 232.469 485.253 229.106 483.308C225.742 481.311 223.115 478.552 221.223 475.031C219.331 471.51 218.385 467.437 218.385 462.813C218.385 458.136 219.331 454.063 221.223 450.594C223.115 447.073 225.742 444.34 229.106 442.396C232.469 440.399 236.332 439.401 240.694 439.401C244.845 439.401 248.603 440.373 251.966 442.317C255.382 444.262 258.246 446.994 260.558 450.515C262.923 453.984 264.579 458.083 265.525 462.813ZM228.79 462.813C228.79 465.808 229.395 468.462 230.603 470.774C231.865 473.034 233.573 474.821 235.727 476.135C237.882 477.396 240.352 478.027 243.137 478.027C245.975 478.027 248.603 477.396 251.02 476.135C253.438 474.821 255.566 473.034 257.405 470.774C259.297 468.462 260.795 465.808 261.899 462.813C260.795 459.817 259.297 457.19 257.405 454.93C255.566 452.618 253.438 450.831 251.02 449.569C248.603 448.256 245.975 447.599 243.137 447.599C240.352 447.599 237.882 448.256 235.727 449.569C233.573 450.831 231.865 452.618 230.603 454.93C229.395 457.19 228.79 459.817 228.79 462.813ZM303.599 486.225C298.869 486.225 294.718 485.594 291.144 484.333C287.623 483.072 284.838 481.259 282.788 478.894C280.791 476.529 279.688 473.717 279.477 470.459H289.41C289.83 473.034 291.249 475.005 293.667 476.371C296.137 477.685 299.447 478.342 303.599 478.342C307.593 478.342 310.72 477.816 312.98 476.765C315.24 475.662 316.369 473.98 316.369 471.72C316.369 469.881 315.423 468.515 313.532 467.621C311.692 466.728 308.749 466.281 304.703 466.281H295.874V459.187H304.466C308.092 459.187 310.773 458.635 312.507 457.531C314.294 456.428 315.187 455.061 315.187 453.432C315.187 451.435 314.136 449.911 312.034 448.86C309.932 447.809 307.173 447.283 303.757 447.283C299.973 447.283 296.899 447.888 294.534 449.096C292.169 450.305 290.776 452.118 290.356 454.536H280.423C280.686 451.698 281.763 449.149 283.655 446.889C285.6 444.577 288.306 442.764 291.775 441.45C295.243 440.084 299.369 439.401 304.151 439.401C308.513 439.401 312.297 439.952 315.502 441.056C318.708 442.16 321.178 443.684 322.912 445.628C324.699 447.52 325.592 449.701 325.592 452.171C325.592 454.168 324.962 456.007 323.7 457.689C322.492 459.371 320.574 460.711 317.946 461.709C315.371 462.708 312.034 463.207 307.935 463.207V461.867C313.926 461.657 318.577 462.471 321.887 464.31C325.198 466.097 326.854 468.777 326.854 472.351C326.854 475.031 325.934 477.422 324.095 479.524C322.308 481.627 319.68 483.282 316.212 484.491C312.743 485.647 308.539 486.225 303.599 486.225ZM411.358 486.225C404.684 486.225 398.824 484.937 393.779 482.362C388.787 479.787 384.898 476.214 382.113 471.642C379.327 467.017 377.935 461.657 377.935 455.56C377.935 449.464 379.327 444.13 382.113 439.558C384.898 434.934 388.787 431.334 393.779 428.759C398.824 426.184 404.684 424.896 411.358 424.896C418.032 424.896 423.866 426.184 428.858 428.759C433.903 431.334 437.818 434.934 440.604 439.558C443.442 444.13 444.86 449.464 444.86 455.56C444.86 461.657 443.442 467.017 440.604 471.642C437.818 476.214 433.903 479.787 428.858 482.362C423.866 484.937 418.032 486.225 411.358 486.225ZM357.439 485.121V426H367.845V485.121H357.439ZM363.036 459.896V450.752H383.295V459.896H363.036ZM411.358 476.844C416.088 476.844 420.161 475.977 423.577 474.243C426.993 472.509 429.62 470.039 431.46 466.833C433.351 463.627 434.297 459.87 434.297 455.56C434.297 451.199 433.351 447.441 431.46 444.288C429.62 441.082 426.993 438.612 423.577 436.878C420.161 435.091 416.088 434.198 411.358 434.198C406.681 434.198 402.608 435.091 399.14 436.878C395.724 438.612 393.07 441.082 391.178 444.288C389.339 447.441 388.419 451.199 388.419 455.56C388.419 459.87 389.339 463.627 391.178 466.833C393.07 470.039 395.724 472.509 399.14 474.243C402.608 475.977 406.681 476.844 411.358 476.844ZM452.428 485.121L454.714 462.813L452.428 440.504H484.748C489.057 440.504 492.421 441.503 494.838 443.5C497.308 445.497 498.543 448.256 498.543 451.777C498.543 455.035 497.308 457.663 494.838 459.66C492.421 461.604 489.031 462.76 484.669 463.128L485.457 461.236C490.608 461.341 494.549 462.392 497.282 464.389C500.015 466.386 501.381 469.198 501.381 472.824C501.381 476.66 499.988 479.682 497.203 481.889C494.47 484.044 490.66 485.121 485.773 485.121H452.428ZM462.361 482.599L458.419 478.027H483.171C485.957 478.027 487.954 477.501 489.162 476.45C490.424 475.346 491.054 473.822 491.054 471.878C491.054 470.144 490.345 468.699 488.926 467.542C487.56 466.386 485.247 465.808 481.989 465.808H460.626V459.187H480.491C483.171 459.187 485.116 458.661 486.325 457.61C487.586 456.506 488.217 455.087 488.217 453.353C488.217 451.672 487.665 450.305 486.561 449.254C485.51 448.15 483.723 447.599 481.201 447.599H458.498L462.361 443.106L464.568 462.813L462.361 482.599ZM509.658 485.121V440.504H519.748V479.997L516.674 479.288L547.181 440.504H560.424V485.121H550.334V445.076L553.487 445.864L522.586 485.121H509.658Z" fill="white"/>
<path d="M200.399 271.08C200.399 271.165 200.41 272.648 200.414 275.776C200.418 278.903 200.427 295.218 200.427 297.388C200.427 299.559 200.416 300.407 200.577 300.684C200.736 300.961 201.062 300.961 213.215 300.961C225.368 300.961 249.347 300.961 261.763 300.961C274.179 300.961 275.032 300.961 275.469 300.493C275.906 300.024 275.926 299.087 275.91 294.366C275.895 289.645 275.842 281.139 275.821 276.626C275.802 272.113 275.813 271.592 276.107 271.327C276.402 271.062 276.98 271.054 308.204 271.052C339.429 271.05 401.3 271.056 433.219 271.044C465.137 271.032 467.103 271.002 468.108 271.772C469.112 272.542 469.156 274.111 469.156 278.44C469.155 282.768 469.112 289.855 469.109 294.07C469.105 298.285 469.142 299.629 469.824 300.301C470.507 300.972 471.834 300.972 484 300.985C496.166 300.998 519.171 301.024 531.051 301.038C542.931 301.05 543.687 301.05 544.086 300.548C544.484 300.046 544.526 299.041 544.552 294.335C544.578 289.628 544.588 281.221 544.605 276.733C544.622 272.245 544.645 271.678 544.914 271.377C545.183 271.077 545.697 271.044 546.594 271.026C547.491 271.009 548.771 271.006 549.606 271.004C550.442 271.002 550.833 271.001 551.025 270.765C551.217 270.529 551.209 270.058 550.934 253.05C550.659 236.042 550.116 202.498 548.005 180.708C545.895 158.917 542.217 148.881 537.994 142.539C533.772 136.196 529.004 133.548 526.552 131.457C524.1 129.366 523.964 127.833 524.713 125.184C525.463 122.536 527.097 118.772 533.329 114.66C539.561 110.548 550.39 106.087 555.941 103.613C561.492 101.139 561.764 100.651 561.117 99.0828C560.47 97.5146 558.903 94.8661 557.746 93.4025C556.588 91.9389 555.839 91.6601 549.811 91.8692C543.783 92.0781 532.478 92.7752 526.723 93.4025C520.967 94.0298 520.763 94.5873 520.457 95.1449C520.15 95.7025 519.741 96.2601 520.116 99.5707C520.491 102.881 521.648 108.945 522.227 112.221C522.806 115.496 522.806 115.984 521.444 117.169C520.082 118.354 517.358 120.236 515.791 121.072C514.225 121.908 513.816 121.699 509.151 111.245C504.485 100.79 495.563 80.0905 490.898 69.6708C486.232 59.2512 485.824 59.1118 480.988 57.5784C476.152 56.0451 466.89 53.1179 455.005 51.1664C443.12 49.2149 428.613 48.2391 415.536 47.6467C402.46 47.0543 390.813 46.8452 378.35 46.8452C365.886 46.8452 352.605 47.0542 341.129 47.5073C329.652 47.9604 319.981 48.6573 306.922 50.4371C293.862 52.2168 277.415 55.0792 268.987 56.7544C260.559 58.4296 260.15 58.9175 255.603 69.5442C251.057 80.1709 242.373 100.935 237.622 111.317C232.871 121.699 232.054 121.699 230.59 120.828C229.125 119.957 227.014 118.214 225.856 117.169C224.698 116.124 224.494 115.775 224.903 113.196C225.311 110.617 226.333 105.808 226.946 102.846C227.559 99.8843 227.763 98.7691 227.695 97.7237C227.627 96.6782 227.286 95.7025 226.639 95.0055C225.992 94.3085 225.039 93.8904 219.011 93.3676C212.984 92.8449 201.882 92.2176 196.025 92.1479C190.168 92.0782 189.555 92.5661 188.703 93.7858C187.852 95.0055 186.762 96.957 186.183 98.1767C185.605 99.3964 185.536 99.8843 185.979 100.616C186.422 101.348 187.375 102.324 192.586 104.693C197.796 107.063 207.263 110.827 212.439 113.127C217.615 115.427 218.501 116.263 219.386 118.249C220.272 120.236 221.157 123.372 221.6 125.358C222.042 127.345 222.042 128.181 220.442 129.192C218.841 130.202 215.64 131.387 213.529 132.293C211.417 133.199 210.396 133.826 209.136 135.116C207.876 136.405 206.377 138.357 205.22 140.413C204.062 142.469 203.245 144.629 202.427 147.034C201.61 149.439 200.793 152.087 199.805 156.129C198.818 160.172 197.66 165.608 196.706 173.519C195.753 181.429 194.929 192.853 194.52 207.558C194.111 222.264 193.936 246.789 193.858 258.255C193.78 269.72 193.784 270.355 193.787 270.991C194.124 271 194.461 271.01 195.245 271.012C196.028 271.013 197.259 271.007 198.193 271.002C199.126 270.998 200.244 270.995 200.321 270.995C200.398 270.994 200.398 270.994 200.399 271.08Z" fill="white" stroke="white" stroke-width="0.897086" stroke-linecap="round" stroke-linejoin="bevel"/>
<path d="M358.975 259.008C357.679 258.51 355.541 257.704 353.035 256.564C350.529 255.425 347.655 253.953 344.447 252.113C341.24 250.273 337.7 248.065 334.107 245.383C330.514 242.702 326.869 239.547 323.732 236.375C320.595 233.203 317.966 230.013 315.968 227.016C313.97 224.019 312.603 221.215 311.482 218.621C310.36 216.028 309.484 213.644 308.905 211.278C308.327 208.912 308.047 206.564 307.906 203.847C307.766 201.131 307.766 198.046 308.257 194.629C308.748 191.211 309.729 187.461 311.369 183.379C313.009 179.298 315.307 174.885 317.893 170.25C320.48 165.615 323.355 160.757 326.079 156.304C328.803 151.85 331.376 147.801 333.767 143.884C336.158 139.966 338.366 136.181 341.45 130.818C344.535 125.455 348.496 118.515 351.685 112.609C354.875 106.702 357.294 101.83 359.099 97.6768C360.904 93.5232 362.096 90.0882 362.937 87.1614C363.778 84.2346 364.269 81.8161 364.532 79.0996C364.794 76.383 364.83 73.3687 364.374 70.4945C363.918 67.6202 362.972 64.8863 362.13 63.0286C361.289 61.1708 360.553 60.1894 360.341 59.6339C360.128 59.0784 360.438 58.949 361.088 59.5392C361.738 60.1297 362.726 61.4402 364.008 63.1743C365.289 64.9084 366.865 67.066 369.129 70.3662C371.393 73.6665 374.346 78.1091 376.927 82.3153C379.507 86.5215 381.715 90.491 383.293 93.4572C384.87 96.4235 385.816 98.3863 386.631 100.235C387.446 102.084 388.13 103.819 388.704 105.427C389.278 107.035 389.742 108.516 390.141 110.037C390.54 111.557 390.873 113.117 390.973 115.488C391.073 117.86 390.946 120.906 390.699 123.119C390.452 125.332 390.093 126.55 389.545 128.127C388.997 129.705 388.261 131.641 387.608 133.184C386.956 134.726 386.386 135.874 385.475 137.547C384.563 139.221 383.31 141.421 379.166 147.628C375.023 153.835 367.988 164.05 363.541 170.669C359.095 177.289 357.236 180.312 355.414 183.51C353.592 186.707 351.808 190.078 350.346 193.213C348.883 196.348 347.743 199.248 346.913 201.714C346.083 204.18 345.562 206.213 345.128 208.282C344.695 210.352 344.348 212.459 344.149 214.342C343.951 216.226 343.901 217.886 344.075 220.006C344.248 222.125 344.645 224.702 345.277 227.317C345.909 229.932 346.776 232.584 347.805 235.124C348.833 237.665 350.023 240.094 351.461 242.486C352.898 244.877 354.584 247.232 356.381 249.5C358.177 251.768 360.086 253.949 361.511 255.572C362.936 257.195 363.878 258.261 364.392 258.974C364.907 259.686 364.993 260.046 364.851 260.281C364.708 260.517 364.337 260.628 363.686 260.541C363.035 260.454 362.106 260.169 361.414 259.932C360.723 259.695 360.271 259.506 358.975 259.008Z" fill="#00A0C9"/>
<path d="M384.029 253.757C382.211 252.107 380.072 249.941 377.842 247.671C375.613 245.402 373.397 243.135 371.507 240.874C369.616 238.613 368.052 236.358 366.885 234.255C365.718 232.153 364.947 230.204 364.326 228.406C363.705 226.608 363.233 224.962 362.951 223.337C362.669 221.713 362.577 220.111 362.589 218.264C362.6 216.418 362.716 214.327 363.158 212.027C363.6 209.728 364.368 207.22 365.57 204.511C366.773 201.802 368.409 198.892 370.238 195.841C372.068 192.79 374.09 189.598 376.001 186.675C377.911 183.752 379.71 181.098 381.387 178.527C383.064 175.955 384.619 173.467 386.795 169.94C388.97 166.413 391.765 161.848 394.028 157.957C396.291 154.066 398.021 150.848 399.332 148.096C400.643 145.344 401.535 143.057 402.183 141.103C402.83 139.149 403.235 137.526 403.505 135.694C403.775 133.862 403.91 131.82 403.725 129.855C403.541 127.89 403.037 126.004 402.568 124.715C402.099 123.425 401.664 122.734 401.548 122.35C401.433 121.966 401.637 121.889 402.026 122.196C402.415 122.503 406.757 127.73 410.614 132.69C414.471 137.649 415.849 139.548 418.659 143.596C421.468 147.643 423.497 150.714 425.627 154.53C427.757 158.347 429.697 162.47 430.939 165.85C432.181 169.23 432.723 171.867 433.037 174.884C433.35 177.901 433.435 181.298 433.178 185.148C432.92 188.999 432.321 193.303 430.995 197.372C429.669 201.441 427.616 205.275 424.336 209.698C421.056 214.121 416.604 219.071 413.096 223.013C409.589 226.954 407.143 229.754 404.42 232.607C401.698 235.461 398.749 238.314 396.679 240.784C394.61 243.255 393.432 245.332 392.521 247.664C391.611 249.996 390.966 252.583 390.815 254.626C390.663 256.669 391.003 258.169 391.343 259.668C390.25 258.787 389.158 257.907 388.017 257.032C386.876 256.158 385.848 255.407 384.029 253.757Z" fill="#00A0C9"/>
</svg>
