<svg width="377" height="256" viewBox="0 0 377 256" fill="none" xmlns="http://www.w3.org/2000/svg">
<path d="M15.3988 225.08C15.3994 225.165 15.4097 226.648 15.4141 229.776C15.4185 232.903 15.4272 249.218 15.4272 251.388C15.4269 253.559 15.4163 254.407 15.5766 254.684C15.7363 254.961 16.0622 254.961 28.2149 254.961C40.3676 254.961 64.347 254.961 76.7631 254.961C89.1793 254.961 90.0322 254.961 90.4689 254.493C90.9056 254.024 90.9261 253.087 90.9102 248.366C90.8949 243.645 90.8418 235.139 90.8213 230.626C90.8016 226.113 90.8125 225.592 91.1068 225.327C91.4016 225.062 91.9798 225.054 123.204 225.052C154.429 225.05 216.3 225.056 248.219 225.044C280.137 225.032 282.103 225.002 283.108 225.772C284.112 226.542 284.156 228.111 284.156 232.44C284.155 236.768 284.112 243.855 284.109 248.07C284.105 252.285 284.142 253.629 284.824 254.301C285.507 254.972 286.834 254.972 299 254.985C311.166 254.998 334.171 255.024 346.051 255.038C357.931 255.05 358.687 255.05 359.086 254.548C359.484 254.046 359.526 253.041 359.552 248.335C359.578 243.628 359.588 235.221 359.605 230.733C359.622 226.245 359.645 225.678 359.914 225.377C360.183 225.077 360.697 225.044 361.594 225.026C362.491 225.009 363.771 225.006 364.606 225.004C365.442 225.002 365.833 225.001 366.025 224.765C366.217 224.529 366.209 224.058 365.934 207.05C365.659 190.042 365.116 156.498 363.005 134.708C360.895 112.917 357.217 102.881 352.994 96.5386C348.772 90.1961 344.004 87.5477 341.552 85.4568C339.1 83.3659 338.964 81.8326 339.713 79.1841C340.463 76.5356 342.097 72.772 348.329 68.6599C354.561 64.5478 365.39 60.0873 370.941 57.6131C376.492 55.1388 376.764 54.6509 376.117 53.0828C375.47 51.5146 373.903 48.8661 372.746 47.4025C371.588 45.9389 370.839 45.6601 364.811 45.8692C358.783 46.0781 347.478 46.7752 341.723 47.4025C335.967 48.0298 335.763 48.5873 335.457 49.1449C335.15 49.7025 334.741 50.2601 335.116 53.5707C335.491 56.8814 336.648 62.9448 337.227 66.2206C337.806 69.4963 337.806 69.9842 336.444 71.169C335.082 72.3539 332.358 74.2357 330.791 75.072C329.225 75.9084 328.816 75.6993 324.151 65.2446C319.485 54.7899 310.563 34.0905 305.898 23.6708C301.232 13.2512 300.824 13.1118 295.988 11.5784C291.152 10.0451 281.89 7.11789 270.005 5.16639C258.12 3.21486 243.613 2.23913 230.536 1.64671C217.46 1.05428 205.813 0.845215 193.35 0.845215C180.886 0.845237 167.605 1.05418 156.129 1.50732C144.652 1.96035 134.981 2.65731 121.922 4.43706C108.862 6.2168 92.4152 9.07919 83.987 10.7544C75.5587 12.4296 75.1501 12.9175 70.6034 23.5442C66.0568 34.1709 57.3729 54.9347 52.6221 65.317C47.8713 75.6993 47.054 75.6993 45.5897 74.8281C44.1254 73.9568 42.0141 72.2145 40.8563 71.169C39.6984 70.1236 39.4941 69.7751 39.9028 67.1963C40.3114 64.6175 41.333 59.8085 41.9459 56.8464C42.5589 53.8843 42.7632 52.7691 42.6951 51.7237C42.627 50.6782 42.2865 49.7025 41.6395 49.0055C40.9924 48.3085 40.0389 47.8904 34.0113 47.3676C27.9836 46.8449 16.8823 46.2176 11.025 46.1479C5.16772 46.0782 4.55477 46.5661 3.70342 47.7858C2.85206 49.0055 1.76234 50.957 1.18345 52.1767C0.604541 53.3964 0.536467 53.8843 0.979213 54.6161C1.42194 55.3479 2.37543 56.3236 7.58576 58.6933C12.7961 61.0631 22.2629 64.8266 27.4391 67.1266C32.6153 69.4266 33.5007 70.2629 34.3861 72.2493C35.2715 74.2357 36.1569 77.372 36.5996 79.3584C37.0423 81.3447 37.0423 82.1811 35.4417 83.1917C33.8411 84.2023 30.6402 85.3871 28.5288 86.2931C26.4175 87.1992 25.3959 87.8265 24.1359 89.1159C22.8759 90.4053 21.3775 92.3568 20.2196 94.4128C19.0618 96.4689 18.2446 98.6295 17.4272 101.034C16.61 103.439 15.7927 106.087 14.8051 110.129C13.8175 114.172 12.6597 119.608 11.7062 127.519C10.7527 135.429 9.92855 146.853 9.51977 161.558C9.11101 176.264 8.93583 200.789 8.85803 212.255C8.78027 223.72 8.78376 224.355 8.78747 224.991C9.12411 225 9.46073 225.01 10.2445 225.012C11.0284 225.013 12.2593 225.007 13.1928 225.002C14.1262 224.998 15.2442 224.995 15.3212 224.995C15.3981 224.994 15.3981 224.994 15.3988 225.08Z" fill="black" stroke="black" stroke-width="0.897086" stroke-linecap="round" stroke-linejoin="bevel"/>
<path d="M173.975 213.008C172.679 212.51 170.541 211.704 168.035 210.564C165.529 209.425 162.655 207.953 159.447 206.113C156.24 204.273 152.7 202.065 149.107 199.383C145.514 196.702 141.869 193.547 138.732 190.375C135.595 187.203 132.966 184.013 130.968 181.016C128.97 178.019 127.603 175.215 126.482 172.621C125.36 170.028 124.484 167.644 123.905 165.278C123.327 162.912 123.047 160.564 122.906 157.847C122.766 155.131 122.766 152.046 123.257 148.629C123.748 145.211 124.729 141.461 126.369 137.379C128.009 133.298 130.307 128.885 132.893 124.25C135.48 119.615 138.355 114.757 141.079 110.304C143.803 105.85 146.376 101.801 148.767 97.8835C151.158 93.9661 153.366 90.1807 156.45 84.8177C159.535 79.4548 163.496 72.5148 166.685 66.6086C169.875 60.7024 172.294 55.8304 174.099 51.6768C175.904 47.5232 177.096 44.0882 177.937 41.1614C178.778 38.2346 179.269 35.8161 179.532 33.0996C179.794 30.383 179.83 27.3687 179.374 24.4945C178.918 21.6202 177.972 18.8863 177.13 17.0286C176.289 15.1708 175.553 14.1894 175.341 13.6339C175.128 13.0784 175.438 12.949 176.088 13.5392C176.738 14.1297 177.726 15.4402 179.008 17.1743C180.289 18.9084 181.865 21.066 184.129 24.3662C186.393 27.6665 189.346 32.1091 191.927 36.3153C194.507 40.5215 196.715 44.491 198.293 47.4572C199.87 50.4235 200.816 52.3863 201.631 54.2353C202.446 56.0843 203.13 57.8193 203.704 59.4273C204.278 61.0353 204.742 62.5162 205.141 64.0365C205.54 65.5569 205.873 67.1167 205.973 69.4882C206.073 71.8596 205.946 74.906 205.699 77.119C205.452 79.3321 205.093 80.5501 204.545 82.1274C203.997 83.7048 203.261 85.6413 202.608 87.1835C201.956 88.7258 201.386 89.8737 200.475 91.5475C199.563 93.2212 198.31 95.4206 194.166 101.628C190.023 107.835 182.988 118.05 178.541 124.669C174.095 131.289 172.236 134.312 170.414 137.51C168.592 140.707 166.808 144.078 165.346 147.213C163.883 150.348 162.743 153.248 161.913 155.714C161.083 158.18 160.562 160.213 160.128 162.282C159.695 164.352 159.348 166.458 159.149 168.342C158.951 170.226 158.901 171.886 159.075 174.006C159.248 176.125 159.645 178.702 160.277 181.317C160.909 183.932 161.776 186.584 162.805 189.124C163.833 191.665 165.023 194.094 166.461 196.486C167.898 198.877 169.584 201.232 171.381 203.5C173.177 205.768 175.086 207.949 176.511 209.572C177.936 211.195 178.878 212.261 179.392 212.974C179.907 213.686 179.993 214.046 179.851 214.281C179.708 214.517 179.337 214.628 178.686 214.541C178.035 214.454 177.106 214.169 176.414 213.932C175.723 213.695 175.271 213.506 173.975 213.008Z" fill="#00A0C9"/>
<path d="M199.029 207.757C197.211 206.107 195.072 203.941 192.842 201.671C190.613 199.402 188.397 197.135 186.507 194.874C184.616 192.613 183.052 190.358 181.885 188.255C180.718 186.153 179.947 184.204 179.326 182.406C178.705 180.608 178.233 178.962 177.951 177.337C177.669 175.713 177.577 174.111 177.589 172.264C177.6 170.418 177.716 168.327 178.158 166.027C178.6 163.728 179.368 161.22 180.57 158.511C181.773 155.802 183.409 152.892 185.238 149.841C187.068 146.79 189.09 143.598 191.001 140.675C192.911 137.752 194.71 135.098 196.387 132.527C198.064 129.955 199.619 127.467 201.795 123.94C203.97 120.413 206.765 115.848 209.028 111.957C211.291 108.066 213.021 104.848 214.332 102.096C215.643 99.344 216.535 97.0575 217.183 95.103C217.83 93.1486 218.235 91.5263 218.505 89.694C218.775 87.8618 218.91 85.8195 218.725 83.855C218.541 81.8904 218.037 80.0036 217.568 78.7145C217.099 77.4255 216.664 76.7342 216.548 76.3501C216.433 75.966 216.637 75.8892 217.026 76.1963C217.415 76.5034 221.757 81.7304 225.614 86.6899C229.471 91.6495 230.849 93.5482 233.659 97.5957C236.468 101.643 238.497 104.714 240.627 108.53C242.757 112.347 244.697 116.47 245.939 119.85C247.181 123.23 247.723 125.867 248.037 128.884C248.35 131.901 248.435 135.298 248.178 139.148C247.92 142.999 247.321 147.303 245.995 151.372C244.669 155.441 242.616 159.275 239.336 163.698C236.056 168.121 231.604 173.071 228.096 177.013C224.589 180.954 222.143 183.754 219.42 186.607C216.698 189.461 213.749 192.314 211.679 194.784C209.61 197.255 208.432 199.332 207.521 201.664C206.611 203.996 205.966 206.583 205.815 208.626C205.663 210.669 206.003 212.169 206.343 213.668C205.25 212.787 204.158 211.907 203.017 211.032C201.876 210.158 200.848 209.407 199.029 207.757Z" fill="#00A0C9"/>
</svg>
