<svg width="236" height="39" viewBox="0 0 236 39" fill="none" xmlns="http://www.w3.org/2000/svg">
<path d="M72.6047 15.0313V10.889H86.0819V15.0313H72.6047ZM83.0059 0L91.8951 18.6031H86.134L78.6785 2.18275H80.2426L72.7611 18.6031H67L75.8892 0H83.0059ZM93.016 18.6031L93.9545 11.5091L93.016 4.43994H105.138C106.58 4.43994 107.727 4.76239 108.579 5.40731C109.43 6.03568 109.856 6.89556 109.856 7.98694C109.856 9.01218 109.422 9.84725 108.553 10.4921C107.701 11.1205 106.519 11.5091 105.007 11.6579L105.346 10.8394C107.102 10.9057 108.44 11.2612 109.361 11.906C110.299 12.5509 110.768 13.4439 110.768 14.5849C110.768 15.8085 110.291 16.7841 109.335 17.5118C108.379 18.2393 107.093 18.6031 105.477 18.6031H93.016ZM98.1515 17.5365L96.0921 15.453H103.704C104.277 15.453 104.703 15.3373 104.981 15.1058C105.277 14.8578 105.424 14.5188 105.424 14.0888C105.424 13.692 105.268 13.3695 104.955 13.1215C104.66 12.8569 104.182 12.7246 103.522 12.7246H97.1348V10.0953H102.896C103.435 10.0953 103.843 9.97961 104.121 9.74814C104.399 9.51668 104.538 9.21076 104.538 8.83037C104.538 8.45006 104.408 8.14414 104.147 7.91263C103.904 7.68116 103.522 7.56543 103 7.56543H96.1182L98.1515 5.5067L99.0117 11.5093L98.1515 17.5365ZM117.103 6.17624H122.447V18.6031H117.103V6.17624ZM111.446 4.43994H128.104V8.2598H111.446V4.43994ZM138.296 19C136.385 19 134.716 18.6941 133.291 18.0822C131.866 17.4538 130.754 16.5774 129.955 15.453C129.155 14.312 128.756 13.0056 128.756 11.5339C128.756 10.0291 129.155 8.71452 129.955 7.59007C130.754 6.46562 131.866 5.58921 133.291 4.96084C134.716 4.33246 136.385 4.01826 138.296 4.01826C140.191 4.01826 141.85 4.33246 143.275 4.96084C144.718 5.58921 145.839 6.46562 146.638 7.59007C147.438 8.71452 147.837 10.0291 147.837 11.5339C147.837 13.0056 147.438 14.312 146.638 15.453C145.839 16.5774 144.718 17.4538 143.275 18.0822C141.85 18.6941 140.191 19 138.296 19ZM138.296 15.2546C139.165 15.2546 139.904 15.1057 140.512 14.8081C141.138 14.5104 141.616 14.0805 141.946 13.5183C142.276 12.956 142.441 12.2946 142.441 11.5339C142.441 10.7402 142.276 10.0705 141.946 9.5248C141.616 8.96256 141.138 8.53262 140.512 8.23497C139.904 7.93732 139.165 7.78849 138.296 7.78849C137.428 7.78849 136.68 7.93732 136.055 8.23497C135.429 8.53262 134.951 8.96256 134.621 9.5248C134.291 10.0705 134.126 10.7319 134.126 11.5091C134.126 12.2863 134.291 12.956 134.621 13.5183C134.951 14.0805 135.429 14.5104 136.055 14.8081C136.68 15.1057 137.428 15.2546 138.296 15.2546ZM152.269 4.43994H168.431V18.6031H163.087V5.87858L165.538 8.21018H154.928L157.17 6.25063C157.274 7.22627 157.352 8.11096 157.404 8.90469C157.457 9.69842 157.483 10.4095 157.483 11.0378C157.483 13.8159 157.031 15.8251 156.127 17.0653C155.241 18.2889 153.798 18.9008 151.8 18.9008C151.209 18.9008 150.653 18.8429 150.131 18.7272C149.61 18.6114 149.097 18.4213 148.593 18.1567V14.5601C148.906 14.6758 149.21 14.7668 149.506 14.833C149.819 14.8828 150.097 14.9077 150.34 14.9077C151.192 14.9077 151.791 14.5521 152.139 13.8411C152.486 13.13 152.66 11.9642 152.66 10.3437C152.66 9.56649 152.625 8.69008 152.556 7.71446C152.504 6.72229 152.408 5.63055 152.269 4.43994ZM188.165 19C186.288 19 184.637 18.6941 183.212 18.0822C181.804 17.4538 180.709 16.5774 179.927 15.453C179.145 14.312 178.754 13.0056 178.754 11.5339C178.754 10.0291 179.145 8.71452 179.927 7.59007C180.709 6.46562 181.804 5.58921 183.212 4.96084C184.637 4.33246 186.288 4.01826 188.165 4.01826C190.042 4.01826 191.684 4.33246 193.092 4.96084C194.517 5.58921 195.62 6.46562 196.402 7.59007C197.202 8.71452 197.602 10.0291 197.602 11.5339C197.602 13.0056 197.202 14.312 196.402 15.453C195.62 16.5774 194.517 17.4538 193.092 18.0822C191.684 18.6941 190.042 19 188.165 19ZM171.351 18.6031V4.43994H176.695V18.6031H171.351ZM174.375 13.2206V9.47519H182.221V13.2206H174.375ZM188.165 15.2546C189.016 15.2546 189.738 15.1057 190.329 14.8081C190.937 14.5104 191.397 14.0805 191.71 13.5183C192.04 12.956 192.205 12.2863 192.205 11.5091C192.205 10.7319 192.04 10.0705 191.71 9.5248C191.397 8.96256 190.937 8.53262 190.329 8.23497C189.738 7.93732 189.016 7.78849 188.165 7.78849C187.313 7.78849 186.583 7.93732 185.975 8.23497C185.367 8.53262 184.898 8.96256 184.567 9.5248C184.255 10.0705 184.098 10.7319 184.098 11.5091C184.098 12.2863 184.255 12.956 184.567 13.5183C184.898 14.0805 185.367 14.5104 185.975 14.8081C186.583 15.1057 187.313 15.2546 188.165 15.2546ZM199.843 18.6031V4.43994H205.187V14.6592L203.623 14.1384L211.913 4.43994H217.544L204.588 18.6031H199.843ZM211.965 18.6031L207.716 11.6828L211.73 9.0039L217.961 18.6031H211.965ZM236 12.6253C235.861 13.8986 235.374 15.0148 234.54 15.9739C233.706 16.933 232.62 17.6771 231.282 18.2063C229.961 18.7354 228.475 19 226.824 19C224.999 19 223.392 18.6858 222.001 18.0574C220.611 17.4291 219.525 16.5526 218.743 15.4282C217.961 14.3037 217.57 13.0056 217.57 11.5339C217.57 10.0457 217.961 8.73934 218.743 7.61489C219.525 6.49042 220.611 5.614 222.001 4.98562C223.392 4.34072 224.999 4.01826 226.824 4.01826C228.475 4.01826 229.961 4.29112 231.282 4.83681C232.62 5.36597 233.706 6.1101 234.54 7.06917C235.374 8.01175 235.861 9.12794 236 10.4178H230.708C230.517 9.57442 230.074 8.92951 229.379 8.48303C228.684 8.02 227.832 7.78849 226.824 7.78849C226.042 7.78849 225.355 7.93732 224.765 8.23497C224.191 8.5161 223.739 8.93776 223.409 9.49997C223.096 10.0457 222.94 10.7236 222.94 11.5339C222.94 12.3277 223.096 13.0056 223.409 13.5679C223.739 14.1136 224.191 14.5352 224.765 14.8329C225.355 15.114 226.042 15.2546 226.824 15.2546C227.832 15.2546 228.684 15.0148 229.379 14.5352C230.091 14.0557 230.534 13.419 230.708 12.6253H236Z" fill="#00A0C9"/>
<path d="M76.2705 25.2519V27.3573H68.2714L69.3309 26.2776V38.7481H67V25.2519H76.2705ZM84.2344 38.7481L83.8459 34.9691L84.305 33.6555L83.8459 32.3599L84.2344 28.563H86.6006L86.0708 33.6555L86.6006 38.7481H84.2344ZM84.9407 33.6555C84.717 34.7232 84.3462 35.659 83.8282 36.4627C83.3103 37.2665 82.6687 37.8903 81.9035 38.3342C81.1501 38.7781 80.3084 39 79.3784 39C78.4013 39 77.536 38.7781 76.7826 38.3342C76.0292 37.8783 75.4406 37.2485 75.0168 36.4447C74.593 35.641 74.3811 34.7112 74.3811 33.6555C74.3811 32.5878 74.593 31.6581 75.0168 30.8663C75.4406 30.0626 76.0292 29.4387 76.7826 28.9948C77.536 28.539 78.4013 28.3111 79.3784 28.3111C80.3084 28.3111 81.1501 28.533 81.9035 28.9769C82.6687 29.4207 83.3103 30.0446 83.8282 30.8483C84.358 31.6401 84.7288 32.5758 84.9407 33.6555ZM76.712 33.6555C76.712 34.3393 76.8474 34.9452 77.1181 35.473C77.4007 35.9889 77.7833 36.3967 78.2659 36.6967C78.7486 36.9846 79.3019 37.1285 79.9258 37.1285C80.5615 37.1285 81.1501 36.9846 81.6916 36.6967C82.2331 36.3967 82.7099 35.9889 83.1219 35.473C83.5457 34.9452 83.8812 34.3393 84.1284 33.6555C83.8812 32.9717 83.5457 32.3719 83.1219 31.856C82.7099 31.3282 82.2331 30.9203 81.6916 30.6324C81.1501 30.3325 80.5615 30.1825 79.9258 30.1825C79.3019 30.1825 78.7486 30.3325 78.2659 30.6324C77.7833 30.9203 77.4007 31.3282 77.1181 31.856C76.8474 32.3719 76.712 32.9717 76.712 33.6555ZM93.4696 39C92.4101 39 91.4801 38.856 90.6796 38.5681C89.8909 38.2802 89.267 37.8663 88.8079 37.3265C88.3605 36.7866 88.1133 36.1448 88.0662 35.401H90.2911C90.3853 35.9889 90.7032 36.4387 91.2447 36.7506C91.798 37.0506 92.5396 37.2005 93.4696 37.2005C94.3643 37.2005 95.0647 37.0805 95.5709 36.8406C96.0771 36.5887 96.3302 36.2048 96.3302 35.689C96.3302 35.2691 96.1183 34.9572 95.6946 34.7532C95.2825 34.5493 94.6233 34.4473 93.7168 34.4473H91.7391V32.8278H93.6639C94.4761 32.8278 95.0765 32.7018 95.465 32.4499C95.8653 32.1979 96.0654 31.886 96.0654 31.5141C96.0654 31.0583 95.8299 30.7104 95.359 30.4704C94.8882 30.2305 94.2701 30.1105 93.5049 30.1105C92.6573 30.1105 91.9687 30.2485 91.4389 30.5244C90.9092 30.8003 90.5972 31.2142 90.503 31.7661H88.2781C88.337 31.1182 88.5783 30.5364 89.0021 30.0206C89.4377 29.4927 90.0439 29.0788 90.8209 28.7789C91.5979 28.467 92.522 28.3111 93.5932 28.3111C94.5703 28.3111 95.4179 28.437 96.136 28.6889C96.8541 28.9409 97.4074 29.2888 97.7959 29.7326C98.1961 30.1645 98.3963 30.6624 98.3963 31.2262C98.3963 31.6821 98.255 32.102 97.9725 32.4859C97.7017 32.8698 97.272 33.1757 96.6834 33.4036C96.1066 33.6315 95.359 33.7455 94.4408 33.7455V33.4396C95.7828 33.3916 96.8247 33.5776 97.5663 33.9974C98.308 34.4053 98.6788 35.0171 98.6788 35.8329C98.6788 36.4447 98.4728 36.9906 98.0607 37.4704C97.6605 37.9503 97.0719 38.3282 96.2949 38.6041C95.518 38.868 94.5762 39 93.4696 39ZM117.608 39C116.113 39 114.801 38.7061 113.671 38.1182C112.552 37.5304 111.681 36.7147 111.057 35.6709C110.433 34.6153 110.121 33.3916 110.121 32C110.121 30.6084 110.433 29.3907 111.057 28.347C111.681 27.2913 112.552 26.4696 113.671 25.8818C114.801 25.2939 116.113 25 117.608 25C119.103 25 120.41 25.2939 121.528 25.8818C122.659 26.4696 123.536 27.2913 124.16 28.347C124.795 29.3907 125.113 30.6084 125.113 32C125.113 33.3916 124.795 34.6153 124.16 35.6709C123.536 36.7147 122.659 37.5304 121.528 38.1182C120.41 38.7061 119.103 39 117.608 39ZM105.53 38.7481V25.2519H107.861V38.7481H105.53ZM106.784 32.9897V30.9023H111.322V32.9897H106.784ZM117.608 36.8586C118.668 36.8586 119.58 36.6607 120.345 36.2648C121.111 35.8689 121.699 35.305 122.111 34.5733C122.535 33.8415 122.747 32.9837 122.747 32C122.747 31.0043 122.535 30.1465 122.111 29.4267C121.699 28.6949 121.111 28.1311 120.345 27.7352C119.58 27.3273 118.668 27.1234 117.608 27.1234C116.561 27.1234 115.648 27.3273 114.871 27.7352C114.106 28.1311 113.512 28.6949 113.088 29.4267C112.676 30.1465 112.47 31.0043 112.47 32C112.47 32.9837 112.676 33.8415 113.088 34.5733C113.512 35.305 114.106 35.8689 114.871 36.2648C115.648 36.6607 116.561 36.8586 117.608 36.8586ZM126.808 38.7481L127.32 33.6555L126.808 28.563H134.048C135.013 28.563 135.767 28.7909 136.308 29.2468C136.862 29.7027 137.138 30.3325 137.138 31.1363C137.138 31.88 136.862 32.4799 136.308 32.9357C135.767 33.3796 135.008 33.6435 134.031 33.7275L134.207 33.2956C135.361 33.3196 136.244 33.5595 136.856 34.0154C137.468 34.4713 137.774 35.1131 137.774 35.9409C137.774 36.8166 137.462 37.5064 136.838 38.0103C136.226 38.5021 135.373 38.7481 134.278 38.7481H126.808ZM129.033 38.1722L128.15 37.1285H133.695C134.319 37.1285 134.766 37.0086 135.037 36.7686C135.32 36.5167 135.461 36.1688 135.461 35.7249C135.461 35.329 135.302 34.9991 134.984 34.7352C134.678 34.4713 134.16 34.3393 133.43 34.3393H128.645V32.8278H133.095C133.695 32.8278 134.131 32.7078 134.401 32.4679C134.684 32.2159 134.825 31.892 134.825 31.4961C134.825 31.1123 134.702 30.8003 134.454 30.5604C134.219 30.3085 133.819 30.1825 133.254 30.1825H128.168L129.033 29.1568L129.528 33.6555L129.033 38.1722ZM139.628 38.7481V28.563H141.888V37.5784L141.2 37.4165L148.033 28.563H151V38.7481H148.74V29.6067L149.446 29.7866L142.524 38.7481H139.628Z" fill="white"/>
<path d="M2.23152 34.4032C2.23161 34.4164 2.23318 34.6438 2.23384 35.1237C2.2345 35.6035 2.23583 38.1066 2.23583 38.4396C2.23578 38.7726 2.23417 38.9028 2.2585 38.9453C2.28272 38.9878 2.33218 38.9878 4.17608 38.9878C6.01997 38.9878 9.65831 38.9878 11.5422 38.9878C13.4261 38.9878 13.5555 38.9878 13.6217 38.9159C13.688 38.844 13.6911 38.7002 13.6887 37.9759C13.6864 37.2515 13.6783 35.9466 13.6752 35.2542C13.6722 34.5618 13.6739 34.4818 13.7185 34.4412C13.7633 34.4005 13.851 34.3992 18.5886 34.3989C23.3263 34.3987 32.7138 34.3996 37.5567 34.3977C42.3997 34.3959 42.698 34.3913 42.8504 34.5094C43.0028 34.6275 43.0094 34.8683 43.0094 35.5324C43.0093 36.1965 43.0027 37.2838 43.0023 37.9305C43.0018 38.5772 43.0074 38.7834 43.1109 38.8864C43.2143 38.9895 43.4157 38.9895 45.2616 38.9915C47.1075 38.9935 50.598 38.9975 52.4006 38.9995C54.2032 39.0015 54.3179 39.0015 54.3784 38.9244C54.4388 38.8473 54.4451 38.6932 54.4491 37.9711C54.453 37.249 54.4546 35.9591 54.4571 35.2706C54.4597 34.5821 54.4633 34.4949 54.5041 34.4489C54.5448 34.4028 54.6229 34.3977 54.7589 34.395C54.895 34.3923 55.0892 34.3919 55.2159 34.3916C55.3427 34.3913 55.4021 34.3912 55.4312 34.355C55.4603 34.3187 55.4592 34.2464 55.4174 31.637C55.3756 29.0275 55.2932 23.881 54.973 20.5378C54.6528 17.1947 54.0948 15.6548 53.4541 14.6818C52.8134 13.7087 52.09 13.3023 51.718 12.9815C51.346 12.6607 51.3253 12.4255 51.439 12.0192C51.5527 11.6128 51.8007 11.0354 52.7463 10.4045C53.6918 9.77357 55.3349 9.08922 56.1771 8.70961C57.0193 8.33 57.0606 8.25515 56.9624 8.01455C56.8643 7.77395 56.6266 7.36761 56.4509 7.14305C56.2752 6.9185 56.1616 6.87573 55.247 6.9078C54.3325 6.93987 52.6171 7.04682 51.7439 7.14306C50.8707 7.2393 50.8396 7.32484 50.7931 7.41039C50.7466 7.49593 50.6846 7.58148 50.7415 8.08942C50.7983 8.59735 50.974 9.52764 51.0618 10.0302C51.1497 10.5328 51.1497 10.6077 50.943 10.7894C50.7363 10.9712 50.323 11.2599 50.0853 11.3883C49.8476 11.5166 49.7856 11.4845 49.0777 9.88048C48.3698 8.27647 47.0161 5.10066 46.3083 3.50202C45.6004 1.90339 45.5384 1.882 44.8047 1.64675C44.071 1.41149 42.6656 0.962386 40.8623 0.662976C39.059 0.363563 36.858 0.213861 34.8738 0.12297C32.8897 0.0320752 31.1227 0 29.2316 0C27.3405 3.42935e-06 25.3254 0.0320606 23.5841 0.101584C21.8429 0.17109 20.3755 0.27802 18.394 0.551079C16.4125 0.824137 13.917 1.2633 12.6382 1.52032C11.3594 1.77734 11.2974 1.85219 10.6076 3.48259C9.91774 5.11299 8.60015 8.29868 7.87932 9.89159C7.15849 11.4845 7.03449 11.4845 6.81231 11.3508C6.59013 11.2172 6.26979 10.9498 6.09412 10.7894C5.91845 10.629 5.88744 10.5756 5.94945 10.1799C6.01145 9.78426 6.16645 9.04645 6.25946 8.59199C6.35246 8.13753 6.38346 7.96643 6.37313 7.80604C6.36279 7.64563 6.31113 7.49593 6.21295 7.389C6.11478 7.28207 5.97011 7.21791 5.05555 7.13771C4.14099 7.05751 2.4566 6.96127 1.56789 6.95058C0.679181 6.93988 0.586179 7.01474 0.457005 7.20187C0.327832 7.389 0.162491 7.68841 0.074657 7.87554C-0.0131799 8.06267 -0.0235086 8.13753 0.0436682 8.24981C0.110842 8.36208 0.255513 8.51178 1.04606 8.87536C1.83662 9.23893 3.273 9.81635 4.05837 10.1692C4.84374 10.5221 4.97808 10.6504 5.11242 10.9552C5.24676 11.2599 5.3811 11.7411 5.44827 12.0459C5.51544 12.3506 5.51543 12.479 5.27258 12.634C5.02973 12.7891 4.54406 12.9708 4.22371 13.1099C3.90336 13.2489 3.74835 13.3451 3.55717 13.5429C3.36599 13.7408 3.13865 14.0402 2.96297 14.3556C2.7873 14.6711 2.6633 15.0026 2.53929 15.3715C2.41528 15.7404 2.29128 16.1467 2.14143 16.7669C1.99159 17.3872 1.81592 18.2212 1.67125 19.4349C1.52657 20.6486 1.40153 22.4013 1.33951 24.6574C1.27749 26.9136 1.25091 30.6765 1.2391 32.4355C1.2273 34.1946 1.22783 34.2921 1.2284 34.3895C1.27947 34.391 1.33055 34.3925 1.44948 34.3928C1.5684 34.393 1.75517 34.392 1.8968 34.3913C2.03844 34.3907 2.20807 34.3902 2.21974 34.3901C2.23141 34.3901 2.23142 34.3901 2.23152 34.4032Z" fill="white"/>
<path d="M25.9939 32.7595C25.7914 32.6828 25.4572 32.5587 25.0655 32.3834C24.6738 32.2081 24.2247 31.9815 23.7234 31.6983C23.2222 31.4151 22.6689 31.0752 22.1074 30.6625C21.5459 30.2498 20.9762 29.7643 20.4859 29.276C19.9956 28.7878 19.5848 28.2969 19.2725 27.8357C18.9603 27.3744 18.7467 26.9428 18.5714 26.5436C18.3961 26.1444 18.2591 25.7776 18.1687 25.4134C18.0783 25.0493 18.0345 24.6879 18.0126 24.2698C17.9907 23.8517 17.9907 23.3769 18.0674 22.851C18.1441 22.325 18.2975 21.7477 18.5537 21.1196C18.81 20.4914 19.1692 19.8123 19.5734 19.0989C19.9777 18.3855 20.427 17.6378 20.8528 16.9524C21.2785 16.2669 21.6806 15.6437 22.0542 15.0408C22.4279 14.4379 22.773 13.8553 23.2551 13.0299C23.7371 12.2045 24.3561 11.1363 24.8546 10.2273C25.3531 9.3183 25.7311 8.56846 26.0132 7.92918C26.2953 7.2899 26.4816 6.76123 26.6131 6.31077C26.7445 5.8603 26.8212 5.48807 26.8623 5.06998C26.9034 4.65188 26.9089 4.18795 26.8376 3.74558C26.7664 3.30321 26.6185 2.88243 26.487 2.59651C26.3556 2.31058 26.2405 2.15954 26.2073 2.07404C26.174 1.98855 26.2226 1.96862 26.3241 2.05946C26.4256 2.15035 26.5801 2.35204 26.7804 2.61894C26.9807 2.88583 27.2269 3.2179 27.5808 3.72584C27.9346 4.23378 28.3961 4.91754 28.7994 5.56491C29.2028 6.21229 29.5479 6.82323 29.7944 7.27976C30.0409 7.73629 30.1888 8.03839 30.3162 8.32296C30.4435 8.60754 30.5503 8.87457 30.64 9.12205C30.7297 9.36954 30.8023 9.59746 30.8646 9.83146C30.927 10.0655 30.979 10.3055 30.9946 10.6705C31.0103 11.0355 30.9905 11.5044 30.9518 11.845C30.9132 12.1856 30.8571 12.373 30.7715 12.6158C30.6859 12.8586 30.5709 13.1566 30.4688 13.394C30.3668 13.6314 30.2778 13.808 30.1354 14.0656C29.9929 14.3232 29.7971 14.6617 29.1495 15.6171C28.5019 16.5725 27.4025 18.1446 26.7075 19.1634C26.0126 20.1821 25.7221 20.6475 25.4374 21.1396C25.1527 21.6317 24.8738 22.1505 24.6452 22.633C24.4167 23.1156 24.2385 23.5619 24.1088 23.9415C23.979 24.321 23.8977 24.6338 23.8299 24.9523C23.7621 25.2709 23.7079 25.5951 23.6769 25.885C23.6459 26.1749 23.6381 26.4305 23.6652 26.7567C23.6923 27.0828 23.7543 27.4795 23.8531 27.882C23.9518 28.2844 24.0874 28.6926 24.2482 29.0836C24.4089 29.4746 24.5948 29.8484 24.8195 30.2166C25.0442 30.5847 25.3076 30.947 25.5884 31.2961C25.8692 31.6451 26.1675 31.9808 26.3902 32.2307C26.613 32.4805 26.7601 32.6446 26.8405 32.7542C26.9209 32.8639 26.9344 32.9192 26.9122 32.9555C26.8899 32.9917 26.8318 33.0089 26.7301 32.9955C26.6284 32.982 26.4832 32.9382 26.3751 32.9017C26.2671 32.8652 26.1964 32.8361 25.9939 32.7595Z" fill="#00A0C9"/>
<path d="M30.031 31.0984C29.774 30.8467 29.4715 30.5161 29.1563 30.17C28.8412 29.8238 28.5279 29.4779 28.2607 29.133C27.9936 28.7881 27.7725 28.4441 27.6075 28.1234C27.4425 27.8027 27.3335 27.5054 27.2457 27.2311C27.1579 26.9568 27.0912 26.7056 27.0513 26.4578C27.0115 26.21 26.9985 25.9657 27.0001 25.684C27.0017 25.4023 27.0181 25.0833 27.0805 24.7325C27.143 24.3817 27.2516 23.9992 27.4216 23.5859C27.5916 23.1726 27.8229 22.7287 28.0815 22.2633C28.3401 21.7979 28.6259 21.311 28.896 20.8651C29.1661 20.4192 29.4203 20.0143 29.6574 19.622C29.8945 19.2298 30.1143 18.8502 30.4218 18.3122C30.7293 17.7742 31.1245 17.0778 31.4443 16.4842C31.7642 15.8905 32.0089 15.3997 32.1942 14.9799C32.3795 14.5601 32.5055 14.2112 32.5971 13.9131C32.6887 13.6149 32.7459 13.3675 32.784 13.088C32.8221 12.8085 32.8412 12.4969 32.8151 12.1972C32.7891 11.8975 32.7179 11.6097 32.6515 11.4131C32.5852 11.2164 32.5238 11.111 32.5074 11.0524C32.4912 10.9938 32.5199 10.9821 32.5749 11.0289C32.6299 11.0757 33.2438 11.8731 33.789 12.6297C34.3342 13.3863 34.529 13.6759 34.9261 14.2933C35.3232 14.9108 35.61 15.3792 35.9111 15.9614C36.2122 16.5436 36.4866 17.1726 36.6621 17.6883C36.8376 18.2039 36.9143 18.6061 36.9586 19.0663C37.0029 19.5266 37.0149 20.0447 36.9785 20.6322C36.9422 21.2196 36.8575 21.8761 36.67 22.4969C36.4826 23.1176 36.1924 23.7025 35.7287 24.3772C35.265 25.0519 34.6357 25.8071 34.1398 26.4083C33.644 27.0095 33.2983 27.4367 32.9134 27.872C32.5285 28.3073 32.1117 28.7425 31.8191 29.1194C31.5266 29.4963 31.3601 29.8131 31.2314 30.1689C31.1026 30.5246 31.0116 30.9192 30.9901 31.2309C30.9686 31.5426 31.0167 31.7713 31.0648 32C30.9104 31.8657 30.756 31.7314 30.5946 31.5979C30.4333 31.4645 30.288 31.3501 30.031 31.0984Z" fill="#00A0C9"/>
</svg>
